<?xml version="1.0" encoding="utf-8"?>
<svg xmlns="http://www.w3.org/2000/svg" xmlns:xlink="http://www.w3.org/1999/xlink" version="1.1" id="Layer_1" x="0px" y="0px" width="102.2px" height="82px" viewBox="0 0 102.2 82" style="enable-background:new 0 0 102.2 82;" xml:space="preserve">
    <style type="text/css">
        .st0{
            fill: #abb8b3;
        }
        .st1{
            fill: #00ac66;
        }
    </style>
    <g>
        <path class="st0" d="M102.2,54.2c-0.3-1.4-0.7-2.8-1-4.1c-0.1-0.3-0.2-0.5-0.3-0.6c-0.2-0.2-0.5-0.2-1.2-0.2   c-0.8,0-1.5-0.1-2.3-0.1c-0.8-0.2-1.4-0.5-2-1.1c-0.5-0.9-1.1-1.7-1.8-2.4c-0.2-0.6-0.3-1.1-0.3-1.7c0.3-1,0.6-2,0.9-3   c0.2-0.5,0-0.8-0.4-1.1c-1.3-0.7-2.5-1.5-3.7-2.3c-0.3-0.2-0.5-0.2-0.7-0.2c-0.2,0-0.5,0.1-0.7,0.3c-0.8,0.7-1.6,1.4-2.3,2.2   c-0.3,0.3-0.6,0.5-0.9,0.5c-0.1,0-0.2,0-0.3-0.1c-1.2-0.3-2.4-0.5-3.6-0.6c-0.6,0-0.9-0.3-1.1-0.8c-0.5-1-1.1-1.9-1.6-2.9   c-0.3-0.6-0.6-0.8-1.3-0.6c-1.3,0.4-2.7,0.7-4.1,1c-0.1,0-0.1,0-0.2,0.1l0,0c-0.4,0.1-0.6,0.2-0.6,0.5c-0.1,0.2-0.1,0.4-0.1,0.6   c0,0.9-0.1,1.9-0.1,2.8c-0.2,0.8-0.7,1.4-1.4,2.1c-0.5,0.3-1,0.7-1.4,1c-0.1,0.1-0.2,0.1-0.3,0.2c-0.9,0.4-1.8,0.5-2.7,0.3   c-0.4-0.1-0.7-0.2-1.1-0.3c-0.1-0.1-0.3-0.1-0.4-0.2c-0.4-0.2-0.9-0.2-1.2-0.3c-0.3,0-0.4,0.2-0.5,0.4c0,0,0,0,0,0.1   c-0.1,0.1-0.2,0.2-0.2,0.3c-0.7,1.3-1.5,2.5-2.3,3.7c-0.3,0.5-0.3,0.8,0.1,1.2c0.8,0.8,1.5,1.6,2.2,2.4c0.3,0.5,0.4,1,0.4,1.6   c-0.3,0.9-0.4,1.8-0.5,2.8c-0.3,0.9-0.7,1.5-1.5,2.1c-0.4,0.2-0.7,0.4-1.1,0.6c-1.3,0.6-1.7,0.8-1.7,1.3c0,0.2,0,0.4,0,0.6   c0.4,1.4,0.7,2.8,1,4.1c0.1,0.6,0.4,0.8,1,0.8c1.1,0,2.2,0.1,3.3,0.1c0.6,0,1,0.2,1.3,0.7c0.6,1,1.2,1.9,2,2.7   c0.5,0.5,0.5,1,0.3,1.6c-0.3,1-0.6,2.1-0.9,3.2c-0.2,0.5-0.1,0.8,0.4,1.1c1.3,0.8,2.6,1.5,3.8,2.3c0.4,0.2,0.6,0.2,0.9,0.1   c0.1,0,0.3-0.1,0.4-0.3c0.8-0.8,1.7-1.6,2.5-2.4c0.1-0.1,0.3-0.2,0.4-0.3c0.2-0.1,0.5-0.1,0.7,0c1.1,0.3,2.3,0.5,3.4,0.5   c0.6,0,0.9,0.2,1.2,0.8c0.5,1,1.1,1.9,1.6,2.9c0.3,0.5,0.6,0.7,1.1,0.6l0,0c0.1,0,0.2,0,0.3,0c1.4-0.4,2.8-0.7,4.1-1   c0.6-0.1,0.8-0.4,0.8-1c0-1.1,0.1-2.2,0.1-3.3c0-0.6,0.2-1,0.7-1.3c1-0.5,1.9-1.2,2.7-2c0.4-0.4,0.8-0.5,1.2-0.4c0.1,0,0.1,0,0.2,0   c1.1,0.3,2.2,0.6,3.3,1c0.3,0.1,0.5,0.1,0.7,0c0,0,0,0,0,0c0,0,0.1,0,0.1,0c0,0,0.1,0,0.1-0.1c0,0,0,0,0,0c0.1-0.1,0.2-0.2,0.2-0.3   c0.4-0.6,0.8-1.3,1.1-1.9c0.4-0.6,0.8-1.3,1.2-1.9c0.1-0.1,0.1-0.2,0.2-0.4c0,0,0,0,0,0c0,0,0-0.1,0-0.1c0,0,0-0.1,0-0.1   c0,0,0,0,0,0c0-0.2-0.1-0.4-0.3-0.6c-0.8-0.8-1.6-1.7-2.4-2.5c0,0-0.1-0.1-0.1-0.1c-0.3-0.4-0.3-0.8-0.2-1.3   c0.3-1.1,0.5-2.2,0.5-3.3c0-0.6,0.3-0.9,0.8-1.2c1-0.5,1.9-1.1,2.9-1.6C102.1,55.2,102.3,54.8,102.2,54.2z M80.9,62.3   c-2.8,0.2-5.3-1.8-5.5-4.6c-0.2-2.8,1.8-5.3,4.6-5.5c2.8-0.2,5.3,1.8,5.5,4.6C85.8,59.6,83.7,62.1,80.9,62.3z"/>
        <path class="st1" d="M60.9,31.1c0-0.4-0.1-0.7-0.3-1c-0.2-0.3-0.6-0.5-1.5-0.7c-1-0.3-2.1-0.6-3.1-0.9c-1-0.5-1.7-1.2-2.3-2.1   c-0.4-1.3-0.9-2.6-1.6-3.8c-0.1-0.8-0.1-1.6,0.1-2.4c0.7-1.3,1.4-2.6,2.2-3.9c0.4-0.7,0.3-1.1-0.2-1.7c-1.5-1.4-2.9-2.8-4.3-4.3   c-0.3-0.3-0.6-0.5-0.9-0.5c-0.3-0.1-0.7,0-1,0.2c-1.3,0.7-2.6,1.4-3.9,2.2c-0.5,0.3-0.9,0.5-1.4,0.4c-0.1,0-0.3-0.1-0.5-0.2   c-1.5-0.9-3.1-1.5-4.7-2c-0.8-0.2-1.1-0.7-1.3-1.4c-0.4-1.5-0.9-2.9-1.2-4.4c-0.2-0.9-0.6-1.3-1.6-1.3c-1.9,0.1-3.9,0.1-5.8,0   c-0.1,0-0.2,0-0.3,0v0c-0.6,0-0.8,0.1-1.1,0.5c-0.2,0.2-0.3,0.5-0.4,0.8c-0.3,1.3-0.7,2.5-1,3.8c-0.6,1-1.4,1.7-2.5,2.4   c-0.8,0.3-1.6,0.6-2.3,0.9c-0.1,0.1-0.3,0.1-0.4,0.2c-1.4,0.3-2.6,0.1-3.8-0.4c-0.5-0.3-0.9-0.5-1.4-0.8c-0.2-0.1-0.4-0.2-0.5-0.4   c-0.5-0.4-1.1-0.6-1.6-0.9c-0.4,0-0.6,0.2-0.8,0.4c0,0,0,0-0.1,0.1c-0.1,0.1-0.3,0.2-0.4,0.3c-1.4,1.5-2.8,2.9-4.3,4.3   c-0.6,0.5-0.6,1-0.2,1.7c0.8,1.3,1.5,2.6,2.2,3.9c0.2,0.7,0.2,1.5,0.1,2.3c-0.6,1.1-1.2,2.3-1.5,3.6c-0.7,1.1-1.5,1.8-2.7,2.3   C4,28.9,3.4,29,2.9,29.2c-1.9,0.4-2.5,0.5-2.7,1.2C0,30.6,0,30.8,0,31.2c0,2,0,4,0,6c0,0.8,0.3,1.2,1.1,1.4   c1.5,0.4,2.9,0.8,4.4,1.2C6.3,40,6.8,40.4,7,41.2c0.4,1.5,1,3,1.8,4.4c0.5,0.8,0.4,1.5-0.1,2.3c-0.8,1.3-1.5,2.7-2.3,4   c-0.4,0.7-0.4,1.1,0.2,1.6c1.5,1.4,3,2.9,4.4,4.4c0.4,0.4,0.8,0.5,1.2,0.4c0.2,0,0.4-0.1,0.7-0.2c1.4-0.8,2.8-1.6,4.2-2.4   c0.2-0.1,0.4-0.2,0.6-0.3c0.3,0,0.6,0.1,1,0.3c1.4,0.8,2.9,1.5,4.5,1.9c0.8,0.2,1.2,0.6,1.4,1.4c0.4,1.5,0.9,2.9,1.2,4.4   c0.2,0.7,0.6,1.1,1.3,1.2v0c0.1,0,0.2,0,0.4,0c2,0,4,0,6,0c0.8,0,1.2-0.3,1.4-1.1c0.4-1.5,0.8-2.9,1.2-4.4c0.2-0.8,0.6-1.2,1.4-1.5   c1.5-0.4,3-1,4.4-1.8c0.6-0.4,1.2-0.4,1.8-0.2c0.1,0,0.1,0.1,0.2,0.1c1.4,0.8,2.8,1.6,4.2,2.4c0.3,0.2,0.6,0.3,0.9,0.3   c0,0,0,0,0.1,0c0,0,0.1,0,0.1,0c0.1,0,0.1,0,0.2-0.1c0,0,0,0,0,0c0.1-0.1,0.3-0.2,0.4-0.3c0.7-0.7,1.4-1.5,2.2-2.2   c0.7-0.7,1.5-1.4,2.2-2.2c0.2-0.1,0.3-0.3,0.3-0.4c0,0,0,0,0,0c0-0.1,0.1-0.1,0.1-0.2c0,0,0-0.1,0-0.1c0,0,0,0,0-0.1   c0-0.3-0.1-0.6-0.3-0.9c-0.8-1.4-1.6-2.8-2.4-4.2c0-0.1-0.1-0.1-0.1-0.2c-0.2-0.6-0.2-1.2,0.2-1.8c0.8-1.4,1.4-2.8,1.8-4.4   c0.2-0.8,0.7-1.2,1.5-1.4c1.5-0.4,3-0.8,4.4-1.2c0.8-0.2,1.1-0.6,1.1-1.4C60.9,35.1,60.9,33.1,60.9,31.1z M35.5,44.2H25.3l2.4-11.5   c-1.4-0.9-2.4-2.5-2.4-4.3c0-2.8,2.3-5.1,5.1-5.1c2.8,0,5.1,2.3,5.1,5.1c0,1.8-1,3.4-2.4,4.3L35.5,44.2z"/>
    </g>
</svg>